<svg width="20" height="20" viewBox="0 0 20 20" fill="none" xmlns="http://www.w3.org/2000/svg">
<path d="M8.22697 8.38995C7.6686 8.38995 7.22778 8.88995 7.22778 9.49995C7.22778 10.11 7.6784 10.61 8.22697 10.61C8.78533 10.61 9.22615 10.11 9.22615 9.49995C9.23595 8.88995 8.78533 8.38995 8.22697 8.38995ZM11.8025 8.38995C11.2441 8.38995 10.8033 8.88995 10.8033 9.49995C10.8033 10.11 11.2539 10.61 11.8025 10.61C12.3608 10.61 12.8017 10.11 12.8017 9.49995C12.8017 8.88995 12.3608 8.38995 11.8025 8.38995Z" fill="#B1B2B4"/>
<path d="M16.5633 0H3.43675C2.32981 0 1.42859 0.92 1.42859 2.06V15.58C1.42859 16.72 2.32981 17.64 3.43675 17.64H14.5453L14.0261 15.79L15.28 16.98L16.4653 18.1L18.5714 20V2.06C18.5714 0.92 17.6702 0 16.5633 0ZM12.7821 13.06C12.7821 13.06 12.4294 12.63 12.1355 12.25C13.4188 11.88 13.9086 11.06 13.9086 11.06C13.507 11.33 13.1249 11.52 12.7821 11.65C12.2923 11.86 11.8221 12 11.3617 12.08C10.4212 12.26 9.5592 12.21 8.82451 12.07C8.26614 11.96 7.78614 11.8 7.38451 11.64C7.1592 11.55 6.9143 11.44 6.66941 11.3C6.64002 11.28 6.61063 11.27 6.58124 11.25C6.56165 11.24 6.55185 11.23 6.54206 11.22C6.36573 11.12 6.26777 11.05 6.26777 11.05C6.26777 11.05 6.73798 11.85 7.98206 12.23C7.68818 12.61 7.32573 13.06 7.32573 13.06C5.16083 12.99 4.33798 11.54 4.33798 11.54C4.33798 8.32 5.74859 5.71 5.74859 5.71C7.1592 4.63 8.50124 4.66 8.50124 4.66L8.5992 4.78C6.83594 5.3 6.02287 6.09 6.02287 6.09C6.02287 6.09 6.23839 5.97 6.60083 5.8C7.649 5.33 8.48165 5.2 8.82451 5.17C8.88328 5.16 8.93226 5.15 8.99104 5.15C9.58859 5.07 10.2645 5.05 10.9698 5.13C11.9004 5.24 12.8996 5.52 13.9184 6.09C13.9184 6.09 13.1445 5.34 11.4792 4.82L11.6163 4.66C11.6163 4.66 12.9584 4.63 14.369 5.71C14.369 5.71 15.7796 8.32 15.7796 11.54C15.7796 11.54 14.947 12.99 12.7821 13.06Z" fill="#B1B2B4"/>
</svg>
