<svg width="30" height="30" viewBox="0 0 30 30" fill="none" xmlns="http://www.w3.org/2000/svg">
<path d="M20.625 11.75L9.375 5.26251" stroke="white" stroke-width="3" stroke-linecap="round" stroke-linejoin="round"/>
<path d="M26.25 20V10C26.2496 9.56159 26.1338 9.13101 25.9144 8.75145C25.695 8.37189 25.3797 8.0567 25 7.8375L16.25 2.8375C15.87 2.61808 15.4388 2.50256 15 2.50256C14.5612 2.50256 14.13 2.61808 13.75 2.8375L5 7.8375C4.62033 8.0567 4.30498 8.37189 4.08558 8.75145C3.86618 9.13101 3.75045 9.56159 3.75 10V20C3.75045 20.4384 3.86618 20.869 4.08558 21.2485C4.30498 21.6281 4.62033 21.9433 5 22.1625L13.75 27.1625C14.13 27.3819 14.5612 27.4974 15 27.4974C15.4388 27.4974 15.87 27.3819 16.25 27.1625L25 22.1625C25.3797 21.9433 25.695 21.6281 25.9144 21.2485C26.1338 20.869 26.2496 20.4384 26.25 20Z" stroke="white" stroke-width="3" stroke-linecap="round" stroke-linejoin="round"/>
<path d="M4.08749 8.70001L15 15.0125L25.9125 8.70001" stroke="white" stroke-width="3" stroke-linecap="round" stroke-linejoin="round"/>
<path d="M15 27.6V15" stroke="white" stroke-width="3" stroke-linecap="round" stroke-linejoin="round"/>
</svg>
