<svg width="20" height="20" viewBox="0 0 20 20" fill="none" xmlns="http://www.w3.org/2000/svg">
<path fill-rule="evenodd" clip-rule="evenodd" d="M11.3331 12H8.5V15H6.5V5H11.3331C13.2663 5 14.8331 6.56687 14.8331 8.5C14.8331 10.4331 13.2663 12 11.3331 12ZM10 0C4.47687 0 0 4.47687 0 10C0 15.5231 4.47687 20 10 20C15.5225 20 20 15.5231 20 10C20 4.47687 15.5225 0 10 0ZM11.3331 6.99999H8.5V10H11.3331C12.1619 10 12.8331 9.32812 12.8331 8.5C12.8331 7.67187 12.1619 6.99999 11.3331 6.99999Z" fill="#B1B2B4"/>
</svg>
