<svg xmlns="http://www.w3.org/2000/svg" viewBox="0 0 512.001 512.001"><g fill="#579add"><path d="M246.984 38.837C337.496 24.059 417.649 12.915 507.881.033c1.957-.28 3.717 1.238 3.717 3.214v236.437a3.242 3.242 0 0 1-3.24 3.245c-89.633.043-181.009 1.828-270.641 1.871a3.25 3.25 0 0 1-3.249-3.252V43.499a3.25 3.25 0 0 1 2.771-3.213l9.745-1.449zM13.612 70.411L206.45 44.928a3.248 3.248 0 0 1 3.674 3.22v193.409a3.247 3.247 0 0 1-3.247 3.244c-68.903.054-136.075 1.814-203.219 1.87a3.255 3.255 0 0 1-3.255-3.254V75.3a3.248 3.248 0 0 1 2.734-3.207l10.475-1.682zM3.659 267.272c67.117.056 134.262 1.785 203.138.084a3.245 3.245 0 0 1 3.328 3.241v195.2a3.254 3.254 0 0 1-3.679 3.221c-68.903-9.075-136.078-18.148-203.229-27.223a3.249 3.249 0 0 1-2.813-3.219v-168.05a3.255 3.255 0 0 1 3.255-3.254zM246.984 269.144h261.365a3.25 3.25 0 0 1 3.249 3.249v236.364c0 2-1.787 3.52-3.761 3.201-89.619-14.525-180.973-25.554-270.579-38.313a3.25 3.25 0 0 1-2.791-3.22V272.392a3.25 3.25 0 0 1 3.249-3.249l9.268.001z"/></g><g fill="#4987ce"><path d="M255.039 241.485V39.592a3.3 3.3 0 0 1 .844-2.202c-2.955.478-5.921.96-8.898 1.447l-9.747 1.449a3.249 3.249 0 0 0-2.771 3.213v198.049a3.25 3.25 0 0 0 3.249 3.252c6.683-.003 13.394-.033 20.096-.054a3.307 3.307 0 0 1-2.773-3.261zM20.975 243.344V71.381c0-.764.268-1.469.709-2.036l-8.072 1.066-10.474 1.68a3.248 3.248 0 0 0-2.734 3.207v168.118a3.254 3.254 0 0 0 3.255 3.254c6.65-.006 13.301-.039 19.953-.075a3.326 3.326 0 0 1-2.637-3.251zM208.576 267.842a3.234 3.234 0 0 0-1.78-.486l1.78.486zM20.975 444.019V270.63a3.358 3.358 0 0 1 2.714-3.293c-6.678-.034-13.355-.059-20.031-.065a3.254 3.254 0 0 0-3.255 3.254v168.049a3.248 3.248 0 0 0 2.814 3.219l17.776 2.401c-.005-.059-.018-.115-.018-.176zM255.039 474.705V272.461a3.319 3.319 0 0 1 3.318-3.318h-20.641a3.248 3.248 0 0 0-3.248 3.248v198.033a3.251 3.251 0 0 0 2.791 3.22c6.042.861 12.094 1.712 18.151 2.558a3.273 3.273 0 0 1-.371-1.497z"/></g></svg>
